<?xml version="1.0" standalone="no"?><!DOCTYPE svg PUBLIC "-//W3C//DTD SVG 1.1//EN" "http://www.w3.org/Graphics/SVG/1.1/DTD/svg11.dtd"><svg t="1588517861417" class="icon" viewBox="0 0 1024 1024" version="1.1" xmlns="http://www.w3.org/2000/svg" p-id="4046" xmlns:xlink="http://www.w3.org/1999/xlink" width="200" height="200"><defs><style type="text/css"></style></defs><path d="M866.816 622.08c-17.92 0-32.768 14.848-32.768 33.28v196.096c0 26.624-20.992 48.64-47.104 48.64H238.08c-26.112 0-47.104-21.504-47.104-48.64V655.36c0-18.432-14.848-33.28-32.768-33.28-17.92 0-32.768 14.848-32.768 33.28v201.728c0 60.928 48.64 110.08 108.032 110.08h558.592c59.392 0 108.032-49.664 108.032-110.08V655.36c-1.024-17.92-15.36-33.28-33.28-33.28zM868.864 71.168l-9.728-14.848H176.64l-9.728 12.8c-174.08 227.328-149.504 366.592-119.296 430.08C77.824 563.2 140.8 604.16 205.824 604.16h6.144c79.36-3.072 133.632-43.52 160.256-70.144 28.672 31.232 76.288 66.048 146.944 66.048 76.8 0 126.464-41.472 151.04-69.632 35.328 28.672 99.84 72.192 168.448 72.192 47.104 0 87.552-19.968 120.32-58.368 121.344-144.384-81.408-459.264-90.112-473.088z m-175.616 209.408v-2.048c0-18.432-14.848-33.28-32.768-33.28-16.384 0-29.184 11.776-32.256 27.136h-0.512v205.312c-12.8 17.92-48.64 55.296-108.544 55.296-66.56 0-102.4-45.568-113.152-61.44V278.528c0-18.432-14.848-33.28-32.768-33.28s-32.768 14.848-32.768 33.28v192c-16.384 20.48-57.856 64-130.56 67.584h-5.12c-33.28 0-76.8-20.992-99.328-68.096-23.04-47.104-39.936-155.136 102.4-347.136h614.912c64 104.448 152.064 297.984 85.504 376.832-19.968 23.552-43.008 35.328-70.656 35.328-61.952 0-128.512-57.344-145.408-72.704l1.024-181.76z" fill="#d4237a" p-id="4047"></path></svg>