<?xml version="1.0" standalone="no"?><!DOCTYPE svg PUBLIC "-//W3C//DTD SVG 1.1//EN" "http://www.w3.org/Graphics/SVG/1.1/DTD/svg11.dtd"><svg t="1586062510909" class="icon" viewBox="0 0 1024 1024" version="1.1" xmlns="http://www.w3.org/2000/svg" p-id="1317" xmlns:xlink="http://www.w3.org/1999/xlink" width="200" height="200"><defs><style type="text/css"></style></defs><path d="M446.141079 484.381743 87.103734 484.381743c-19.120332 0-36.116183-16.995851-36.116183-36.116183L50.987552 91.352697c0-19.120332 16.995851-36.116183 36.116183-36.116183L446.141079 55.236515c19.120332 0 36.116183 16.995851 36.116183 36.116183l0 359.037344C482.257261 467.385892 465.261411 484.381743 446.141079 484.381743z" p-id="1318" fill="#d4237a"></path><path d="M953.892116 484.381743 596.979253 484.381743c-19.120332 0-36.116183-16.995851-36.116183-36.116183L560.863071 91.352697c0-19.120332 16.995851-36.116183 36.116183-36.116183l356.912863 0c19.120332 0 36.116183 16.995851 36.116183 36.116183l0 359.037344C990.008299 467.385892 973.012448 484.381743 953.892116 484.381743z" p-id="1319" fill="#d4237a"></path><path d="M446.141079 994.257261 87.103734 994.257261c-19.120332 0-36.116183-16.995851-36.116183-36.116183L50.987552 599.103734c0-19.120332 16.995851-36.116183 36.116183-36.116183L446.141079 562.987552c19.120332 0 36.116183 16.995851 36.116183 36.116183l0 359.037344C482.257261 977.261411 465.261411 994.257261 446.141079 994.257261z" p-id="1320" fill="#d4237a"></path><path d="M953.892116 994.257261 596.979253 994.257261c-19.120332 0-36.116183-16.995851-36.116183-36.116183L560.863071 599.103734c0-19.120332 16.995851-36.116183 36.116183-36.116183l356.912863 0c19.120332 0 36.116183 16.995851 36.116183 36.116183l0 359.037344C990.008299 977.261411 975.136929 994.257261 953.892116 994.257261z" p-id="1321" fill="#d4237a"></path></svg>